<svg width="74" height="74" viewBox="0 0 74 74" fill="none" xmlns="http://www.w3.org/2000/svg">
<g clip-path="url(#clip0_52_1254)">
<path d="M37 41.625C35.7734 41.625 34.597 41.1377 33.7296 40.2704C32.8623 39.403 32.375 38.2266 32.375 37C32.375 35.7734 32.8623 34.597 33.7296 33.7296C34.597 32.8623 35.7734 32.375 37 32.375C38.2266 32.375 39.403 32.8623 40.2704 33.7296C41.1377 34.597 41.625 35.7734 41.625 37C41.625 38.2266 41.1377 39.403 40.2704 40.2704C39.403 41.1377 38.2266 41.625 37 41.625ZM35.372 50.8565C35.9116 51.504 36.4542 52.133 37 52.7342C37.5457 52.133 38.0884 51.5071 38.628 50.8565C37.5428 50.8795 36.4572 50.8795 35.372 50.8565ZM29.2208 50.4711C26.8529 50.2247 24.5008 49.8459 22.1753 49.3364C21.9441 50.4156 21.7683 51.4639 21.6512 52.4691C21.0653 57.35 21.8824 60.3162 23.125 61.0315C24.3676 61.7499 27.343 60.9729 31.2804 58.0283C32.0913 57.4209 32.9084 56.7457 33.7286 56.0087C32.1237 54.2485 30.6187 52.3997 29.2208 50.4711ZM51.8247 49.3364C49.6139 49.8297 47.2521 50.2121 44.7792 50.4711C43.3813 52.3997 41.8763 54.2485 40.2714 56.0087C41.0916 56.7487 41.9087 57.4209 42.7196 58.0283C46.657 60.9729 49.6324 61.7499 50.875 61.0315C52.1176 60.3162 52.9316 57.35 52.3519 52.4691C52.2247 51.4175 52.0498 50.3722 51.8277 49.3364H51.8247ZM56.2955 48.1432C58.0746 56.2801 57.1403 62.7582 53.1875 65.0398C49.2347 67.3215 43.1574 64.8918 37 59.2832C30.8426 64.8918 24.7653 67.3184 20.8125 65.0367C16.8597 62.7551 15.9254 56.2801 17.7014 48.1401C9.76492 45.6148 4.625 41.5633 4.625 37C4.625 32.4367 9.76492 28.3883 17.7014 25.8568C15.9254 17.7199 16.8597 11.2418 20.8125 8.96018C24.7653 6.67851 30.8426 9.10818 37 14.7168C43.1574 9.10818 49.2347 6.6816 53.1875 8.96326C57.1403 11.2449 58.0746 17.7199 56.2986 25.8599C64.2351 28.3852 69.375 32.4367 69.375 37C69.375 41.5633 64.2351 45.6117 56.2986 48.1432H56.2955ZM33.7255 17.9913C32.9414 17.2815 32.1255 16.6076 31.2804 15.9717C27.343 13.0271 24.3676 12.2501 23.125 12.9685C21.8824 13.6838 21.0684 16.65 21.6481 21.5309C21.7714 22.5392 21.9441 23.5844 22.1722 24.6636C24.4987 24.154 26.8519 23.7752 29.2208 23.5289C30.6853 21.5155 32.1962 19.6624 33.7286 17.9913H33.7255ZM44.7792 23.5289C47.2521 23.7879 49.6139 24.1733 51.8247 24.6636C52.0559 23.5844 52.2317 22.5361 52.3488 21.5309C52.9347 16.65 52.1176 13.6838 50.875 12.9685C49.6324 12.2501 46.657 13.0271 42.7196 15.9717C41.8734 16.6075 41.0565 17.2814 40.2714 17.9913C41.8038 19.6624 43.3147 21.5155 44.7792 23.5289ZM38.628 23.1435C38.0884 22.496 37.5457 21.867 37 21.2658C36.4542 21.867 35.9116 22.4929 35.372 23.1435C36.4572 23.1205 37.5428 23.1205 38.628 23.1435ZM25.8137 45.3373C25.2511 44.4096 24.7083 43.47 24.1857 42.5192C23.8927 43.3116 23.6214 44.0917 23.3747 44.8656C24.1672 45.0382 24.9812 45.1955 25.8106 45.3373H25.8137ZM31.7707 46.0588C35.2521 46.3174 38.7479 46.3174 42.2293 46.0588C44.194 43.1727 45.942 40.1448 47.4587 37C45.942 33.8552 44.194 30.8273 42.2293 27.9412C38.7479 27.6826 35.2521 27.6826 31.7707 27.9412C29.806 30.8273 28.058 33.8552 26.5413 37C28.058 40.1448 29.806 43.1727 31.7707 46.0588ZM49.8143 31.4808C50.1073 30.6884 50.3786 29.9083 50.6253 29.1344C49.8169 28.959 49.0048 28.8017 48.1894 28.6627C48.7509 29.5905 49.2927 30.5301 49.8143 31.4808ZM18.9008 30.3308C17.8525 30.6699 16.8597 31.0399 15.9285 31.4408C11.4114 33.3771 9.25 35.5662 9.25 37C9.25 38.4338 11.4083 40.6229 15.9285 42.5592C16.8597 42.9601 17.8525 43.3301 18.9008 43.6692C19.5853 41.5109 20.4332 39.2724 21.4446 37C20.4728 34.8262 19.6235 32.5996 18.9008 30.3308ZM23.3717 29.1344C23.6214 29.9053 23.8927 30.6884 24.1857 31.4778C24.7084 30.528 25.2512 29.5894 25.8137 28.6627C24.9812 28.8045 24.1672 28.9618 23.3747 29.1344H23.3717ZM55.0992 43.6692C56.1475 43.3301 57.1403 42.9601 58.0715 42.5592C62.5886 40.6229 64.75 38.4338 64.75 37C64.75 35.5662 62.5917 33.3771 58.0715 31.4408C57.098 31.026 56.1062 30.6557 55.0992 30.3308C54.4147 32.4891 53.5667 34.7276 52.5554 37C53.5667 39.2724 54.4147 41.5078 55.0992 43.6692ZM50.6283 44.8656C50.3786 44.0947 50.1073 43.3116 49.8143 42.5222C49.2916 43.472 48.7488 44.4106 48.1863 45.3373C49.0188 45.1955 49.8328 45.0382 50.6253 44.8656H50.6283Z" fill="#00B3FE"/>
</g>
<defs>
<clipPath id="clip0_52_1254">
<rect width="74" height="74" fill="white"/>
</clipPath>
</defs>
</svg>
